# xmcd
#
# Track frame offsets: 
#        150
#        1298
#        72418
#        79293
#        81684
#        218737
#        295643
#
# Disc length: 3983 seconds
#
# Revision: 0
# Processed by: cddbd v1.5.2PL0 Copyright (c) Steve Scherf et al.
# Submitted via: ExactAudioCopy v0.95b3
#
DISCID=600f8d07
DTITLE=The Beatles  - AB  Road - Complete Purple Chick Set v1.1 Jan.14
DTITLE=Various Artist - D2  FLAC
DYEAR=1900
DGENRE=
TTITLE0=Roll Announcement
TTITLE1=Dialogue
TTITLE2=Dialogue
TTITLE3=You Are Definitely Inclined Towards It 14.29
TTITLE4=Dialogue
TTITLE5=Dialogue
TTITLE6=Mean Mr. Mustard 14.30
EXTD=
EXTT0=
EXTT1=
EXTT2=
EXTT3=
EXTT4=
EXTT5=
EXTT6=
PLAYORDER=
